<svg width="40" height="40" viewBox="0 0 40 40" fill="none" xmlns="http://www.w3.org/2000/svg">
<g clip-path="url(#clip0_1_8)">
<path d="M19.59 37.81L12.59 27.46L2.24 20.46C1.65879 20.0618 1.25477 19.4536 1.11302 18.7634C0.971259 18.0733 1.10282 17.3551 1.48 16.76L6.18 9.24C6.72591 8.38033 7.58791 7.76975 8.58 7.54L36.73 0.999998C37.0444 0.914668 37.3757 0.913864 37.6905 0.997667C38.0053 1.08147 38.2924 1.24691 38.5227 1.47725C38.7531 1.7076 38.9185 1.99468 39.0023 2.30948C39.0861 2.62427 39.0853 2.95561 39 3.27L32.5 31.42C32.2702 32.4121 31.6597 33.2741 30.8 33.82L23.33 38.57C22.7316 38.9596 22.0041 39.0982 21.3043 38.956C20.6046 38.8138 19.9889 38.4022 19.59 37.81Z" stroke="white" stroke-width="2" stroke-linecap="round" stroke-linejoin="round"/>
<path d="M36.73 0.999998L23.32 4.14L9 25L12.58 27.44L15 31L35.86 16.68L39 3.27C39.0853 2.95561 39.0861 2.62427 39.0023 2.30948C38.9185 1.99468 38.7531 1.7076 38.5227 1.47725C38.2924 1.24691 38.0053 1.08147 37.6905 0.997667C37.3757 0.913864 37.0444 0.914668 36.73 0.999998Z" stroke="white" stroke-width="2" stroke-linecap="round" stroke-linejoin="round"/>
<path d="M28.27 6.65L31.42 8.23C31.5711 8.30616 31.6938 8.42885 31.77 8.58L33.35 11.73" stroke="white" stroke-width="2" stroke-linecap="round" stroke-linejoin="round"/>
<path d="M12.54 27.46L8.88 25L7.88 26C7.63569 26.2442 7.44189 26.5342 7.30966 26.8533C7.17744 27.1725 7.10938 27.5146 7.10938 27.86C7.10938 28.2055 7.17744 28.5475 7.30966 28.8667C7.44189 29.1858 7.63569 29.4758 7.88 29.72L10.31 32.15C10.5542 32.3943 10.8442 32.5881 11.1633 32.7203C11.4825 32.8526 11.8245 32.9206 12.17 32.9206C12.5155 32.9206 12.8575 32.8526 13.1767 32.7203C13.4958 32.5881 13.7858 32.3943 14.03 32.15L15.03 31.15L12.54 27.46Z" stroke="white" stroke-width="2" stroke-linecap="round" stroke-linejoin="round"/>
</g>
<defs>
<clipPath id="clip0_1_8">
<rect width="40" height="40" fill="white"/>
</clipPath>
</defs>
</svg>
