<svg width="22" height="22" viewBox="0 0 22 22" fill="none" xmlns="http://www.w3.org/2000/svg">
<g clip-path="url(#clip0_0_3)">
<path d="M11 7.33333C12.0083 7.33333 12.8333 6.50833 12.8333 5.5C12.8333 4.49167 12.0083 3.66667 11 3.66667C9.99167 3.66667 9.16667 4.49167 9.16667 5.5C9.16667 6.50833 9.99167 7.33333 11 7.33333ZM11 9.16667C9.99167 9.16667 9.16667 9.99167 9.16667 11C9.16667 12.0083 9.99167 12.8333 11 12.8333C12.0083 12.8333 12.8333 12.0083 12.8333 11C12.8333 9.99167 12.0083 9.16667 11 9.16667ZM11 14.6667C9.99167 14.6667 9.16667 15.4917 9.16667 16.5C9.16667 17.5083 9.99167 18.3333 11 18.3333C12.0083 18.3333 12.8333 17.5083 12.8333 16.5C12.8333 15.4917 12.0083 14.6667 11 14.6667Z" fill="black"/>
</g>
<defs>
<clipPath id="clip0_0_3">
<rect width="22" height="22" fill="white"/>
</clipPath>
</defs>
</svg>
