<svg width="40" height="40" viewBox="0 0 40 40" fill="none" xmlns="http://www.w3.org/2000/svg">
<g clip-path="url(#clip0_1_19)">
<path d="M14.53 1H4.28C2.46851 1 1 2.46851 1 4.28V14.53C1 16.3415 2.46851 17.81 4.28 17.81H14.53C16.3415 17.81 17.81 16.3415 17.81 14.53V4.28C17.81 2.46851 16.3415 1 14.53 1Z" stroke="white" stroke-width="2" stroke-miterlimit="10"/>
<path d="M35.72 1H25.47C23.6585 1 22.19 2.46851 22.19 4.28V14.53C22.19 16.3415 23.6585 17.81 25.47 17.81H35.72C37.5315 17.81 39 16.3415 39 14.53V4.28C39 2.46851 37.5315 1 35.72 1Z" stroke="white" stroke-width="2" stroke-miterlimit="10"/>
<path d="M14.53 22.19H4.28C2.46851 22.19 1 23.6585 1 25.47V35.72C1 37.5315 2.46851 39 4.28 39H14.53C16.3415 39 17.81 37.5315 17.81 35.72V25.47C17.81 23.6585 16.3415 22.19 14.53 22.19Z" stroke="white" stroke-width="2" stroke-miterlimit="10"/>
<path d="M35.72 22.19H25.47C23.6585 22.19 22.19 23.6585 22.19 25.47V35.72C22.19 37.5315 23.6585 39 25.47 39H35.72C37.5315 39 39 37.5315 39 35.72V25.47C39 23.6585 37.5315 22.19 35.72 22.19Z" stroke="white" stroke-width="2" stroke-miterlimit="10"/>
<path d="M14.53 1H4.28C2.46851 1 1 2.46851 1 4.28V14.53C1 16.3415 2.46851 17.81 4.28 17.81H14.53C16.3415 17.81 17.81 16.3415 17.81 14.53V4.28C17.81 2.46851 16.3415 1 14.53 1Z" stroke="white" stroke-width="2" stroke-miterlimit="10"/>
<path d="M35.72 1H25.47C23.6585 1 22.19 2.46851 22.19 4.28V14.53C22.19 16.3415 23.6585 17.81 25.47 17.81H35.72C37.5315 17.81 39 16.3415 39 14.53V4.28C39 2.46851 37.5315 1 35.72 1Z" stroke="white" stroke-width="2" stroke-miterlimit="10"/>
</g>
<defs>
<clipPath id="clip0_1_19">
<rect width="40" height="40" fill="white"/>
</clipPath>
</defs>
</svg>
